<mxfile host="app.diagrams.net" modified="2021-05-14T14:52:58.225Z" agent="5.0 (X11)" etag="1THA9nxkaytAoQRRQh4A" version="14.6.13" type="github">
  <diagram id="qbq8Te8321AZCy-N6jcK" name="Page-1">
    <mxGraphModel dx="1422" dy="711" grid="1" gridSize="10" guides="1" tooltips="1" connect="1" arrows="1" fold="1" page="1" pageScale="1" pageWidth="850" pageHeight="1100" math="0" shadow="0">
      <root>
        <mxCell id="0" />
        <mxCell id="1" parent="0" />
        <mxCell id="NCtLaqPGzu9Vtqwdy5KU-5" style="edgeStyle=orthogonalEdgeStyle;rounded=0;orthogonalLoop=1;jettySize=auto;html=1;exitX=0.5;exitY=1;exitDx=0;exitDy=0;" edge="1" parent="1" source="NCtLaqPGzu9Vtqwdy5KU-1" target="NCtLaqPGzu9Vtqwdy5KU-3">
          <mxGeometry relative="1" as="geometry" />
        </mxCell>
        <mxCell id="NCtLaqPGzu9Vtqwdy5KU-1" value="" style="aspect=fixed;perimeter=ellipsePerimeter;html=1;align=center;shadow=0;dashed=0;spacingTop=3;image;image=img/lib/active_directory/internet_cloud.svg;" vertex="1" parent="1">
          <mxGeometry x="370" y="95" width="79.36" height="50" as="geometry" />
        </mxCell>
        <mxCell id="NCtLaqPGzu9Vtqwdy5KU-2" value="" style="shape=image;html=1;verticalAlign=top;verticalLabelPosition=bottom;labelBackgroundColor=#ffffff;imageAspect=0;aspect=fixed;image=https://cdn1.iconfinder.com/data/icons/user-pictures/100/male3-128.png" vertex="1" parent="1">
          <mxGeometry x="300" y="90" width="60" height="60" as="geometry" />
        </mxCell>
        <mxCell id="NCtLaqPGzu9Vtqwdy5KU-7" style="edgeStyle=orthogonalEdgeStyle;rounded=0;orthogonalLoop=1;jettySize=auto;html=1;exitX=0.5;exitY=1;exitDx=0;exitDy=0;exitPerimeter=0;" edge="1" parent="1" source="NCtLaqPGzu9Vtqwdy5KU-3" target="NCtLaqPGzu9Vtqwdy5KU-6">
          <mxGeometry relative="1" as="geometry" />
        </mxCell>
        <mxCell id="NCtLaqPGzu9Vtqwdy5KU-3" value="" style="outlineConnect=0;dashed=0;verticalLabelPosition=bottom;verticalAlign=top;align=center;html=1;shape=mxgraph.aws3.application_load_balancer;fillColor=#F58536;gradientColor=none;" vertex="1" parent="1">
          <mxGeometry x="375.18" y="210" width="69" height="72" as="geometry" />
        </mxCell>
        <mxCell id="NCtLaqPGzu9Vtqwdy5KU-9" value="" style="edgeStyle=orthogonalEdgeStyle;rounded=0;orthogonalLoop=1;jettySize=auto;html=1;" edge="1" parent="1" source="NCtLaqPGzu9Vtqwdy5KU-6" target="NCtLaqPGzu9Vtqwdy5KU-8">
          <mxGeometry relative="1" as="geometry" />
        </mxCell>
        <mxCell id="NCtLaqPGzu9Vtqwdy5KU-17" value="Text" style="edgeLabel;html=1;align=center;verticalAlign=middle;resizable=0;points=[];" vertex="1" connectable="0" parent="NCtLaqPGzu9Vtqwdy5KU-9">
          <mxGeometry x="0.225" y="1" relative="1" as="geometry">
            <mxPoint x="-102" y="1" as="offset" />
          </mxGeometry>
        </mxCell>
        <mxCell id="NCtLaqPGzu9Vtqwdy5KU-20" value="user.domain.de/graphql" style="edgeLabel;html=1;align=center;verticalAlign=middle;resizable=0;points=[];" vertex="1" connectable="0" parent="NCtLaqPGzu9Vtqwdy5KU-9">
          <mxGeometry x="-0.381" y="2" relative="1" as="geometry">
            <mxPoint x="35" as="offset" />
          </mxGeometry>
        </mxCell>
        <mxCell id="NCtLaqPGzu9Vtqwdy5KU-11" value="" style="edgeStyle=orthogonalEdgeStyle;rounded=0;orthogonalLoop=1;jettySize=auto;html=1;" edge="1" parent="1" source="NCtLaqPGzu9Vtqwdy5KU-6" target="NCtLaqPGzu9Vtqwdy5KU-10">
          <mxGeometry relative="1" as="geometry" />
        </mxCell>
        <mxCell id="NCtLaqPGzu9Vtqwdy5KU-16" value="cms.domain.de/graphql" style="edgeLabel;html=1;align=center;verticalAlign=middle;resizable=0;points=[];" vertex="1" connectable="0" parent="NCtLaqPGzu9Vtqwdy5KU-11">
          <mxGeometry x="-0.3228" y="2" relative="1" as="geometry">
            <mxPoint as="offset" />
          </mxGeometry>
        </mxCell>
        <mxCell id="NCtLaqPGzu9Vtqwdy5KU-6" value="" style="shape=image;html=1;verticalAlign=top;verticalLabelPosition=bottom;labelBackgroundColor=#ffffff;imageAspect=0;aspect=fixed;image=https://cdn3.iconfinder.com/data/icons/social-media-2169/24/social_media_social_media_logo_docker-128.png" vertex="1" parent="1">
          <mxGeometry x="375.18" y="370" width="70" height="70" as="geometry" />
        </mxCell>
        <mxCell id="NCtLaqPGzu9Vtqwdy5KU-14" style="edgeStyle=orthogonalEdgeStyle;rounded=0;orthogonalLoop=1;jettySize=auto;html=1;exitX=0.5;exitY=1;exitDx=0;exitDy=0;entryX=0.5;entryY=0;entryDx=0;entryDy=0;entryPerimeter=0;" edge="1" parent="1" source="NCtLaqPGzu9Vtqwdy5KU-8" target="NCtLaqPGzu9Vtqwdy5KU-13">
          <mxGeometry relative="1" as="geometry" />
        </mxCell>
        <mxCell id="NCtLaqPGzu9Vtqwdy5KU-8" value="Userdata" style="shape=image;html=1;verticalAlign=top;verticalLabelPosition=bottom;labelBackgroundColor=#ffffff;imageAspect=0;aspect=fixed;image=https://cdn3.iconfinder.com/data/icons/social-media-2169/24/social_media_social_media_logo_docker-128.png" vertex="1" parent="1">
          <mxGeometry x="591" y="521.5" width="70" height="70" as="geometry" />
        </mxCell>
        <mxCell id="NCtLaqPGzu9Vtqwdy5KU-15" style="edgeStyle=orthogonalEdgeStyle;rounded=0;orthogonalLoop=1;jettySize=auto;html=1;exitX=0.5;exitY=1;exitDx=0;exitDy=0;entryX=0.5;entryY=0;entryDx=0;entryDy=0;entryPerimeter=0;" edge="1" parent="1" source="NCtLaqPGzu9Vtqwdy5KU-10" target="NCtLaqPGzu9Vtqwdy5KU-12">
          <mxGeometry relative="1" as="geometry" />
        </mxCell>
        <mxCell id="NCtLaqPGzu9Vtqwdy5KU-10" value="Contentdata" style="shape=image;html=1;verticalAlign=top;verticalLabelPosition=bottom;labelBackgroundColor=#ffffff;imageAspect=0;aspect=fixed;image=https://cdn3.iconfinder.com/data/icons/social-media-2169/24/social_media_social_media_logo_docker-128.png" vertex="1" parent="1">
          <mxGeometry x="180" y="521.5" width="70" height="70" as="geometry" />
        </mxCell>
        <mxCell id="NCtLaqPGzu9Vtqwdy5KU-12" value="RDS&lt;br&gt;Content Database" style="outlineConnect=0;dashed=0;verticalLabelPosition=bottom;verticalAlign=top;align=center;html=1;shape=mxgraph.aws3.rds;fillColor=#2E73B8;gradientColor=none;" vertex="1" parent="1">
          <mxGeometry x="179" y="710" width="72" height="81" as="geometry" />
        </mxCell>
        <mxCell id="NCtLaqPGzu9Vtqwdy5KU-13" value="RDS&lt;br&gt;Userdata Database" style="outlineConnect=0;dashed=0;verticalLabelPosition=bottom;verticalAlign=top;align=center;html=1;shape=mxgraph.aws3.rds;fillColor=#2E73B8;gradientColor=none;" vertex="1" parent="1">
          <mxGeometry x="590" y="701" width="72" height="81" as="geometry" />
        </mxCell>
        <mxCell id="NCtLaqPGzu9Vtqwdy5KU-21" value="" style="shape=image;html=1;verticalAlign=top;verticalLabelPosition=bottom;labelBackgroundColor=#ffffff;imageAspect=0;aspect=fixed;image=https://cdn3.iconfinder.com/data/icons/social-media-2169/24/social_media_social_media_logo_docker-128.png" vertex="1" parent="1">
          <mxGeometry x="651" y="521.5" width="70" height="70" as="geometry" />
        </mxCell>
        <mxCell id="NCtLaqPGzu9Vtqwdy5KU-22" value="" style="shape=image;html=1;verticalAlign=top;verticalLabelPosition=bottom;labelBackgroundColor=#ffffff;imageAspect=0;aspect=fixed;image=https://cdn3.iconfinder.com/data/icons/social-media-2169/24/social_media_social_media_logo_docker-128.png" vertex="1" parent="1">
          <mxGeometry x="521" y="521.5" width="70" height="70" as="geometry" />
        </mxCell>
        <mxCell id="NCtLaqPGzu9Vtqwdy5KU-23" value="" style="shape=image;html=1;verticalAlign=top;verticalLabelPosition=bottom;labelBackgroundColor=#ffffff;imageAspect=0;aspect=fixed;image=https://cdn3.iconfinder.com/data/icons/social-media-2169/24/social_media_social_media_logo_docker-128.png" vertex="1" parent="1">
          <mxGeometry x="250" y="518.5" width="70" height="70" as="geometry" />
        </mxCell>
        <mxCell id="NCtLaqPGzu9Vtqwdy5KU-24" value="" style="shape=image;html=1;verticalAlign=top;verticalLabelPosition=bottom;labelBackgroundColor=#ffffff;imageAspect=0;aspect=fixed;image=https://cdn3.iconfinder.com/data/icons/social-media-2169/24/social_media_social_media_logo_docker-128.png" vertex="1" parent="1">
          <mxGeometry x="390" y="390" width="70" height="70" as="geometry" />
        </mxCell>
        <mxCell id="NCtLaqPGzu9Vtqwdy5KU-25" value="frontend Container" style="shape=image;html=1;verticalAlign=top;verticalLabelPosition=bottom;labelBackgroundColor=#ffffff;imageAspect=0;aspect=fixed;image=https://cdn3.iconfinder.com/data/icons/social-media-2169/24/social_media_social_media_logo_docker-128.png" vertex="1" parent="1">
          <mxGeometry x="400" y="410" width="70" height="70" as="geometry" />
        </mxCell>
      </root>
    </mxGraphModel>
  </diagram>
</mxfile>
